<svg width="150" height="55" viewBox="0 0 150 55" fill="none" xmlns="http://www.w3.org/2000/svg">
<path d="M149.21 6.40855L142.384 0.617227C142.072 0.360312 141.707 0.176945 141.315 0.0808319C140.922 -0.0152808 140.513 -0.0217018 140.118 0.0620592C120.689 4.00798 29.3326 4.00798 9.90305 0.0620592C9.50798 -0.0217018 9.09911 -0.0152808 8.70686 0.0808319C8.31462 0.176945 7.9491 0.360312 7.63751 0.617227L0.810934 6.40855C0.510413 6.65025 0.281668 6.96948 0.149449 7.33176C0.01723 7.69404 -0.0134323 8.08558 0.0607595 8.46403C2.43388 20.8543 2.43388 33.5825 0.0607595 45.9728C-0.0134323 46.3512 0.01723 46.7428 0.149449 47.105C0.281668 47.4673 0.510413 47.7865 0.810934 48.0282L7.63751 53.8196C7.9491 54.0765 8.31462 54.2598 8.70686 54.356C9.09911 54.4521 9.50798 54.4585 9.90305 54.3747C29.3326 50.4288 120.689 50.4288 140.118 54.3747C140.513 54.4585 140.922 54.4521 141.315 54.356C141.707 54.2598 142.072 54.0765 142.384 53.8196L149.21 48.0282C149.511 47.7865 149.74 47.4673 149.872 47.105C150.004 46.7428 150.035 46.3512 149.961 45.9728C147.588 33.5825 147.588 20.8543 149.961 8.46403C150.035 8.08558 150.004 7.69404 149.872 7.33176C149.74 6.96948 149.511 6.65025 149.21 6.40855Z" fill="url(#paint0_linear_13_269)"/>
<path d="M1.81597 28.2086C1.81597 28.5387 1.81597 28.8688 1.81597 29.2139C1.83747 35.2526 1.29501 41.2802 0.195614 47.2181C0.00421833 46.8271 -0.048693 46.3827 0.0455702 45.9578C1.20125 40.1115 1.79409 34.168 1.81597 28.2086Z" fill="url(#paint1_linear_13_269)"/>
<path style="mix-blend-mode:screen" opacity="0.7" d="M149.195 8.41897L142.369 2.56761C142.057 2.30999 141.692 2.12509 141.3 2.02646C140.908 1.92782 140.499 1.91793 140.103 1.99747C120.689 5.94339 29.3323 5.94339 9.90276 1.99747C9.50647 1.919 9.09769 1.92942 8.70593 2.02801C8.31416 2.1266 7.94915 2.31091 7.63721 2.56761L0.810641 8.35894C0.549496 8.57789 0.343813 8.85553 0.210464 9.16914C0.210464 8.86907 0.0904728 8.61403 0.0604658 8.38898C-0.00879562 8.0106 0.0241899 7.62058 0.156069 7.25923C0.287948 6.89788 0.513938 6.57832 0.810641 6.33351L7.63721 0.617177C7.94769 0.358325 8.31313 0.173734 8.70574 0.0775314C9.09836 -0.0186713 9.50778 -0.0239856 9.90276 0.0620096C29.4073 3.99293 120.689 3.99293 140.103 0.0620096C140.498 -0.025125 140.908 -0.020366 141.3 0.0758831C141.693 0.172132 142.059 0.357338 142.369 0.617177L149.195 6.4085C149.5 6.64687 149.731 6.96577 149.864 7.32905C149.997 7.69234 150.025 8.08549 149.945 8.46398C149.945 8.67403 149.855 8.91408 149.795 9.16914C149.65 8.87955 149.446 8.6239 149.195 8.41897Z" fill="url(#paint2_linear_13_269)"/>
<path d="M141.244 30.0239L139.743 25.6879L138.768 24.7727C138.906 21.017 139.408 17.2836 140.268 13.6251C140.316 13.3379 140.279 13.0432 140.161 12.7768C140.044 12.5104 139.852 12.2839 139.608 12.1248L133.607 7.86377C133.028 7.46773 132.316 7.31671 131.626 7.44368C126.285 8.35889 114.702 8.94403 100.824 9.31912L102.46 8.35887L104.38 6.85852L101.379 8.35887L97.5384 8.82402L96.4132 9.42415C66.8413 9.99428 29.2125 9.33412 18.1849 7.44368C17.4952 7.31671 16.7832 7.46773 16.2044 7.86377L10.2031 12.1248C9.95935 12.2839 9.7672 12.5104 9.64999 12.7768C9.53278 13.0432 9.49555 13.3379 9.54289 13.6251C10.0834 15.9027 10.4744 18.2132 10.7132 20.5417L8.1626 22.2822V25.2829L9.4379 23.5574L10.9383 22.9423C11.0433 24.3376 11.1033 25.8379 11.1033 27.4433C11.1429 32.0822 10.6393 36.7098 9.60292 41.2315C9.55558 41.5187 9.5928 41.8134 9.71002 42.0798C9.82723 42.3462 10.0194 42.5728 10.2631 42.7319L16.2645 46.9929C16.8433 47.3889 17.5552 47.54 18.2449 47.413C35.1689 44.5023 114.792 44.5023 131.716 47.413C132.406 47.54 133.118 47.3889 133.697 46.9929L139.698 42.7319C139.942 42.5728 140.134 42.3462 140.251 42.0798C140.369 41.8134 140.406 41.5187 140.358 41.2315C139.431 37.2092 138.928 33.1009 138.858 28.9737L140.208 31.1492L140.403 35.2152L141.244 30.0239Z" fill="url(#paint3_linear_13_269)"/>
<path d="M137.913 40.2114C137.974 40.483 137.946 40.767 137.832 41.0212C137.719 41.2754 137.526 41.486 137.283 41.6217L131.551 45.5826C130.985 45.9396 130.306 46.0733 129.646 45.9577C113.352 43.2571 36.6242 43.2571 20.3604 45.9577C19.7008 46.0704 19.0227 45.9369 18.4549 45.5826L12.7236 41.5767C12.4838 41.4375 12.2939 41.2264 12.1808 40.9733C12.0677 40.7202 12.0371 40.4378 12.0935 40.1663C12.2735 39.4912 12.5136 38.396 12.7686 37.0006C13.1597 36.6808 13.5032 36.3069 13.7889 35.8903C13.7889 35.7103 13.4588 33.6548 13.4588 33.6548L13.7889 32.1545L13.4888 31.1492C13.5638 29.994 13.6088 28.7337 13.6088 27.4284C13.6269 23.1175 13.1231 18.8203 12.1085 14.6304C12.0521 14.3589 12.0827 14.0766 12.1958 13.8235C12.3089 13.5703 12.4988 13.3592 12.7386 13.2201L18.47 9.25913C19.0344 8.89661 19.7156 8.7625 20.3754 8.88404C26.7819 9.93429 42.5056 10.5794 60.1947 10.8045L60.6898 11.2096L63.1504 11.5697H65.866L68.6716 11.2396L71.3873 12.3349L73.6228 10.9545C97.2983 10.9545 121.289 10.2944 129.601 8.92905C130.261 8.8044 130.943 8.93873 131.506 9.30414L137.238 13.2651C137.481 13.4007 137.674 13.6114 137.787 13.8655C137.901 14.1197 137.929 14.4038 137.868 14.6754C135.894 23.0983 135.894 31.8635 137.868 40.2864L137.913 40.2114Z" fill="url(#paint4_linear_13_269)"/>
<defs>
<linearGradient id="paint0_linear_13_269" x1="75.0032" y1="1.48739" x2="75.0032" y2="66.1975" gradientUnits="userSpaceOnUse">
<stop offset="0.01" stop-color="#285F96"/>
<stop offset="1" stop-color="#0B0D13"/>
</linearGradient>
<linearGradient id="paint1_linear_13_269" x1="0.915769" y1="28.7337" x2="0.915769" y2="51.299" gradientUnits="userSpaceOnUse">
<stop offset="0.01" stop-color="#285F96"/>
<stop offset="1" stop-color="#0B0D13"/>
</linearGradient>
<linearGradient id="paint2_linear_13_269" x1="75.0029" y1="0.257064" x2="75.0029" y2="11.2396" gradientUnits="userSpaceOnUse">
<stop stop-color="#14FFFF"/>
<stop offset="0.2" stop-color="#14E0E8"/>
<stop offset="0.63" stop-color="#1490AD"/>
<stop offset="1" stop-color="#144878"/>
</linearGradient>
<linearGradient id="paint3_linear_13_269" x1="74.7781" y1="9.70919" x2="74.7781" y2="60.5861" gradientUnits="userSpaceOnUse">
<stop/>
<stop offset="1" stop-color="#192637"/>
</linearGradient>
<linearGradient id="paint4_linear_13_269" x1="75.0031" y1="11.3746" x2="75.0031" y2="58.0806" gradientUnits="userSpaceOnUse">
<stop offset="0.01" stop-color="#144878"/>
<stop offset="1" stop-color="#0B0D13"/>
</linearGradient>
</defs>
</svg>
